<svg xmlns="http://www.w3.org/2000/svg" xmlns:xlink="http://www.w3.org/1999/xlink" viewBox="0 0 449 182">
  <defs>
    <style>
      .cls-1 {
        fill: url(#linear-gradient);
      }

      .cls-2 {
        opacity: 0.39;
      }

      .cls-3 {
        fill: #fff;
      }
    </style>
    <linearGradient id="linear-gradient" y1="0.5" x2="1" y2="0.5" gradientUnits="objectBoundingBox">
      <stop offset="0" stop-color="#204cbe"/>
      <stop offset="1" stop-color="#052142"/>
    </linearGradient>
  </defs>
  <g id="bg" transform="translate(37 -806)">
    <rect id="Rectangle_1" data-name="Rectangle 1" class="cls-1" width="449" height="182" transform="translate(-37 806)"/>
    <g id="_001-wallet" data-name="001-wallet" class="cls-2" transform="translate(162 844)">
      <path id="Path_1" data-name="Path 1" class="cls-3" d="M30.181,13.411H28.8V7.057a2.766,2.766,0,0,0-2.763-2.763H24.166L22.252.853A1.657,1.657,0,0,0,20,.209L12.65,4.295H4.444A2.766,2.766,0,0,0,1.681,7.057V26.026a2.766,2.766,0,0,0,2.763,2.763H26.037A2.766,2.766,0,0,0,28.8,26.026V20.455h1.381V13.411ZM26.037,5.4a1.654,1.654,0,0,1,1.639,1.474H25.6L24.781,5.4Zm-5.5-4.225a.563.563,0,0,1,.751.214l3.05,5.484H10.288Zm7.159,24.852a1.66,1.66,0,0,1-1.658,1.658H4.444a1.66,1.66,0,0,1-1.658-1.658V7.057A1.66,1.66,0,0,1,4.444,5.4h6.22L8.014,6.873H4.789a.553.553,0,1,0,0,1.105H27.695v5.433h-4.04a3.408,3.408,0,0,0-3.4,3.4v.238a3.408,3.408,0,0,0,3.4,3.4h4.04v5.57Zm1.381-6.676H23.654a2.3,2.3,0,0,1-2.3-2.3v-.238a2.3,2.3,0,0,1,2.3-2.3h5.422Zm-3.729-2.372a1.22,1.22,0,1,1-1.22-1.22A1.22,1.22,0,0,1,25.347,16.979Z" transform="translate(-1.681)"/>
    </g>
    <g id="_001-wallet-2" data-name="001-wallet" class="cls-2" transform="translate(2 938)">
      <path id="Path_1-2" data-name="Path 1" class="cls-3" d="M30.181,13.411H28.8V7.057a2.766,2.766,0,0,0-2.763-2.763H24.166L22.252.853A1.657,1.657,0,0,0,20,.209L12.65,4.295H4.444A2.766,2.766,0,0,0,1.681,7.057V26.026a2.766,2.766,0,0,0,2.763,2.763H26.037A2.766,2.766,0,0,0,28.8,26.026V20.455h1.381V13.411ZM26.037,5.4a1.654,1.654,0,0,1,1.639,1.474H25.6L24.781,5.4Zm-5.5-4.225a.563.563,0,0,1,.751.214l3.05,5.484H10.288Zm7.159,24.852a1.66,1.66,0,0,1-1.658,1.658H4.444a1.66,1.66,0,0,1-1.658-1.658V7.057A1.66,1.66,0,0,1,4.444,5.4h6.22L8.014,6.873H4.789a.553.553,0,1,0,0,1.105H27.695v5.433h-4.04a3.408,3.408,0,0,0-3.4,3.4v.238a3.408,3.408,0,0,0,3.4,3.4h4.04v5.57Zm1.381-6.676H23.654a2.3,2.3,0,0,1-2.3-2.3v-.238a2.3,2.3,0,0,1,2.3-2.3h5.422Zm-3.729-2.372a1.22,1.22,0,1,1-1.22-1.22A1.22,1.22,0,0,1,25.347,16.979Z" transform="translate(-1.681)"/>
    </g>
    <g id="_001-wallet-3" data-name="001-wallet" class="cls-2" transform="translate(59 823)">
      <path id="Path_1-3" data-name="Path 1" class="cls-3" d="M22.47,9.783H21.463V5.148a2.017,2.017,0,0,0-2.015-2.015H18.083L16.686.622a1.209,1.209,0,0,0-1.644-.47L9.683,3.133H3.7A2.017,2.017,0,0,0,1.681,5.148V18.985A2.017,2.017,0,0,0,3.7,21H19.448a2.017,2.017,0,0,0,2.015-2.015V14.921H22.47V9.783ZM19.448,3.939a1.207,1.207,0,0,1,1.2,1.075H19.129l-.6-1.075ZM15.434.857a.411.411,0,0,1,.548.156l2.225,4H7.959Zm5.222,18.128a1.211,1.211,0,0,1-1.209,1.209H3.7a1.211,1.211,0,0,1-1.209-1.209V5.148A1.211,1.211,0,0,1,3.7,3.939H8.233L6.3,5.014H3.948a.4.4,0,1,0,0,.806H20.657V9.783H17.709a2.486,2.486,0,0,0-2.483,2.483v.173a2.486,2.486,0,0,0,2.483,2.483h2.947v4.063Zm1.008-4.87H17.709a1.678,1.678,0,0,1-1.677-1.677v-.173a1.678,1.678,0,0,1,1.677-1.677h3.955Zm-2.72-1.73a.89.89,0,1,1-.89-.89A.89.89,0,0,1,18.944,12.385Z" transform="translate(-1.681)"/>
    </g>
    <g id="_001-wallet-4" data-name="001-wallet" class="cls-2" transform="translate(354 844)">
      <path id="Path_1-4" data-name="Path 1" class="cls-3" d="M22.47,9.783H21.463V5.148a2.017,2.017,0,0,0-2.015-2.015H18.083L16.686.622a1.209,1.209,0,0,0-1.644-.47L9.683,3.133H3.7A2.017,2.017,0,0,0,1.681,5.148V18.985A2.017,2.017,0,0,0,3.7,21H19.448a2.017,2.017,0,0,0,2.015-2.015V14.921H22.47V9.783ZM19.448,3.939a1.207,1.207,0,0,1,1.2,1.075H19.129l-.6-1.075ZM15.434.857a.411.411,0,0,1,.548.156l2.225,4H7.959Zm5.222,18.128a1.211,1.211,0,0,1-1.209,1.209H3.7a1.211,1.211,0,0,1-1.209-1.209V5.148A1.211,1.211,0,0,1,3.7,3.939H8.233L6.3,5.014H3.948a.4.4,0,1,0,0,.806H20.657V9.783H17.709a2.486,2.486,0,0,0-2.483,2.483v.173a2.486,2.486,0,0,0,2.483,2.483h2.947v4.063Zm1.008-4.87H17.709a1.678,1.678,0,0,1-1.677-1.677v-.173a1.678,1.678,0,0,1,1.677-1.677h3.955Zm-2.72-1.73a.89.89,0,1,1-.89-.89A.89.89,0,0,1,18.944,12.385Z" transform="translate(-1.681)"/>
    </g>
    <g id="_001-wallet-5" data-name="001-wallet" class="cls-2" transform="translate(132 931)">
      <path id="Path_1-5" data-name="Path 1" class="cls-3" d="M22.47,9.783H21.463V5.148a2.017,2.017,0,0,0-2.015-2.015H18.083L16.686.622a1.209,1.209,0,0,0-1.644-.47L9.683,3.133H3.7A2.017,2.017,0,0,0,1.681,5.148V18.985A2.017,2.017,0,0,0,3.7,21H19.448a2.017,2.017,0,0,0,2.015-2.015V14.921H22.47V9.783ZM19.448,3.939a1.207,1.207,0,0,1,1.2,1.075H19.129l-.6-1.075ZM15.434.857a.411.411,0,0,1,.548.156l2.225,4H7.959Zm5.222,18.128a1.211,1.211,0,0,1-1.209,1.209H3.7a1.211,1.211,0,0,1-1.209-1.209V5.148A1.211,1.211,0,0,1,3.7,3.939H8.233L6.3,5.014H3.948a.4.4,0,1,0,0,.806H20.657V9.783H17.709a2.486,2.486,0,0,0-2.483,2.483v.173a2.486,2.486,0,0,0,2.483,2.483h2.947v4.063Zm1.008-4.87H17.709a1.678,1.678,0,0,1-1.677-1.677v-.173a1.678,1.678,0,0,1,1.677-1.677h3.955Zm-2.72-1.73a.89.89,0,1,1-.89-.89A.89.89,0,0,1,18.944,12.385Z" transform="translate(-1.681)"/>
    </g>
    <g id="_001-wallet-6" data-name="001-wallet" class="cls-2" transform="translate(298 907)">
      <path id="Path_1-6" data-name="Path 1" class="cls-3" d="M22.47,9.783H21.463V5.148a2.017,2.017,0,0,0-2.015-2.015H18.083L16.686.622a1.209,1.209,0,0,0-1.644-.47L9.683,3.133H3.7A2.017,2.017,0,0,0,1.681,5.148V18.985A2.017,2.017,0,0,0,3.7,21H19.448a2.017,2.017,0,0,0,2.015-2.015V14.921H22.47V9.783ZM19.448,3.939a1.207,1.207,0,0,1,1.2,1.075H19.129l-.6-1.075ZM15.434.857a.411.411,0,0,1,.548.156l2.225,4H7.959Zm5.222,18.128a1.211,1.211,0,0,1-1.209,1.209H3.7a1.211,1.211,0,0,1-1.209-1.209V5.148A1.211,1.211,0,0,1,3.7,3.939H8.233L6.3,5.014H3.948a.4.4,0,1,0,0,.806H20.657V9.783H17.709a2.486,2.486,0,0,0-2.483,2.483v.173a2.486,2.486,0,0,0,2.483,2.483h2.947v4.063Zm1.008-4.87H17.709a1.678,1.678,0,0,1-1.677-1.677v-.173a1.678,1.678,0,0,1,1.677-1.677h3.955Zm-2.72-1.73a.89.89,0,1,1-.89-.89A.89.89,0,0,1,18.944,12.385Z" transform="translate(-1.681)"/>
    </g>
    <g id="_002-card" data-name="002-card" class="cls-2" transform="translate(85.068 882.651) rotate(-30)">
      <g id="Group_2" data-name="Group 2">
        <g id="Group_1" data-name="Group 1">
          <path id="Path_2" data-name="Path 2" class="cls-3" d="M88.51,0H79.142A2.345,2.345,0,0,0,76.8,2.342V19.2a2.345,2.345,0,0,0,2.342,2.342h8.431V20.61H79.142A1.407,1.407,0,0,1,77.737,19.2V2.342A1.407,1.407,0,0,1,79.142.937H88.51a1.407,1.407,0,0,1,1.405,1.405V15.926h.937V2.342A2.345,2.345,0,0,0,88.51,0Z" transform="translate(-76.8)"/>
        </g>
      </g>
      <g id="Group_4" data-name="Group 4" transform="translate(6.558 6.734)">
        <g id="Group_3" data-name="Group 3">
          <path id="Path_3" data-name="Path 3" class="cls-3" d="M208.254,128.418l-4.6-5.743-.732.586,4.6,5.742a4.228,4.228,0,0,1,.924,2.635v11.471h-6.853a4.394,4.394,0,0,1-4.389-4.389v-1.7h-.937v1.7a5.332,5.332,0,0,0,5.326,5.326h7.321a.468.468,0,0,0,.468-.468V131.638A5.172,5.172,0,0,0,208.254,128.418Z" transform="translate(-196.267 -122.675)"/>
        </g>
      </g>
      <g id="Group_6" data-name="Group 6" transform="translate(5.757 10.109)">
        <g id="Group_5" data-name="Group 5">
          <path id="Path_4" data-name="Path 4" class="cls-3" d="M183.878,185.1a1.223,1.223,0,0,1,.86.385l6.295,6.689.682-.642-6.3-6.689a2.154,2.154,0,0,0-1.515-.679,2.127,2.127,0,0,0-1.546.586l-.047.046a2.162,2.162,0,0,0-.124,2.933l4.034,4.764v1.449a6.267,6.267,0,0,0,4.051,5.844l.329-.877a5.327,5.327,0,0,1-3.443-4.967v-1.621a.47.47,0,0,0-.111-.3l-4.144-4.893a1.237,1.237,0,0,1,.094-1.689A1.254,1.254,0,0,1,183.878,185.1Z" transform="translate(-181.674 -184.16)"/>
        </g>
      </g>
      <g id="Group_8" data-name="Group 8" transform="translate(10.305 0.937)">
        <g id="Group_7" data-name="Group 7">
          <rect id="Rectangle_2" data-name="Rectangle 2" class="cls-3" width="0.937" height="11.71"/>
        </g>
      </g>
      <g id="Group_10" data-name="Group 10" transform="translate(7.963 15.457)">
        <g id="Group_9" data-name="Group 9">
          <rect id="Rectangle_3" data-name="Rectangle 3" class="cls-3" width="0.937" height="5.621"/>
        </g>
      </g>
      <g id="Group_12" data-name="Group 12" transform="translate(7.963 0.468)">
        <g id="Group_11" data-name="Group 11">
          <rect id="Rectangle_4" data-name="Rectangle 4" class="cls-3" width="0.937" height="10.305"/>
        </g>
      </g>
      <g id="Group_14" data-name="Group 14" transform="translate(2.342 2.342)">
        <g id="Group_13" data-name="Group 13">
          <rect id="Rectangle_5" data-name="Rectangle 5" class="cls-3" width="0.937" height="6.089"/>
        </g>
      </g>
      <g id="Group_16" data-name="Group 16" transform="translate(4.684 2.342)">
        <g id="Group_15" data-name="Group 15">
          <rect id="Rectangle_6" data-name="Rectangle 6" class="cls-3" width="0.937" height="3.747"/>
        </g>
      </g>
      <g id="Group_18" data-name="Group 18" transform="translate(2.342 15.457)">
        <g id="Group_17" data-name="Group 17">
          <path id="Path_5" data-name="Path 5" class="cls-3" d="M122.746,281.6h-2.81a.468.468,0,0,0-.468.468v2.81a.468.468,0,0,0,.468.468h2.81a.468.468,0,0,0,.468-.468v-2.81A.468.468,0,0,0,122.746,281.6Zm-.468,2.81H120.4v-1.874h1.874Z" transform="translate(-119.467 -281.6)"/>
        </g>
      </g>
    </g>
    <g id="_002-card-2" data-name="002-card" class="cls-2" transform="translate(267.068 826.651) rotate(-30)">
      <g id="Group_2-2" data-name="Group 2">
        <g id="Group_1-2" data-name="Group 1">
          <path id="Path_2-2" data-name="Path 2" class="cls-3" d="M88.51,0H79.142A2.345,2.345,0,0,0,76.8,2.342V19.2a2.345,2.345,0,0,0,2.342,2.342h8.431V20.61H79.142A1.407,1.407,0,0,1,77.737,19.2V2.342A1.407,1.407,0,0,1,79.142.937H88.51a1.407,1.407,0,0,1,1.405,1.405V15.926h.937V2.342A2.345,2.345,0,0,0,88.51,0Z" transform="translate(-76.8)"/>
        </g>
      </g>
      <g id="Group_4-2" data-name="Group 4" transform="translate(6.558 6.734)">
        <g id="Group_3-2" data-name="Group 3">
          <path id="Path_3-2" data-name="Path 3" class="cls-3" d="M208.254,128.418l-4.6-5.743-.732.586,4.6,5.742a4.228,4.228,0,0,1,.924,2.635v11.471h-6.853a4.394,4.394,0,0,1-4.389-4.389v-1.7h-.937v1.7a5.332,5.332,0,0,0,5.326,5.326h7.321a.468.468,0,0,0,.468-.468V131.638A5.172,5.172,0,0,0,208.254,128.418Z" transform="translate(-196.267 -122.675)"/>
        </g>
      </g>
      <g id="Group_6-2" data-name="Group 6" transform="translate(5.757 10.109)">
        <g id="Group_5-2" data-name="Group 5">
          <path id="Path_4-2" data-name="Path 4" class="cls-3" d="M183.878,185.1a1.223,1.223,0,0,1,.86.385l6.295,6.689.682-.642-6.3-6.689a2.154,2.154,0,0,0-1.515-.679,2.127,2.127,0,0,0-1.546.586l-.047.046a2.162,2.162,0,0,0-.124,2.933l4.034,4.764v1.449a6.267,6.267,0,0,0,4.051,5.844l.329-.877a5.327,5.327,0,0,1-3.443-4.967v-1.621a.47.47,0,0,0-.111-.3l-4.144-4.893a1.237,1.237,0,0,1,.094-1.689A1.254,1.254,0,0,1,183.878,185.1Z" transform="translate(-181.674 -184.16)"/>
        </g>
      </g>
      <g id="Group_8-2" data-name="Group 8" transform="translate(10.305 0.937)">
        <g id="Group_7-2" data-name="Group 7">
          <rect id="Rectangle_2-2" data-name="Rectangle 2" class="cls-3" width="0.937" height="11.71"/>
        </g>
      </g>
      <g id="Group_10-2" data-name="Group 10" transform="translate(7.963 15.457)">
        <g id="Group_9-2" data-name="Group 9">
          <rect id="Rectangle_3-2" data-name="Rectangle 3" class="cls-3" width="0.937" height="5.621"/>
        </g>
      </g>
      <g id="Group_12-2" data-name="Group 12" transform="translate(7.963 0.468)">
        <g id="Group_11-2" data-name="Group 11">
          <rect id="Rectangle_4-2" data-name="Rectangle 4" class="cls-3" width="0.937" height="10.305"/>
        </g>
      </g>
      <g id="Group_14-2" data-name="Group 14" transform="translate(2.342 2.342)">
        <g id="Group_13-2" data-name="Group 13">
          <rect id="Rectangle_5-2" data-name="Rectangle 5" class="cls-3" width="0.937" height="6.089"/>
        </g>
      </g>
      <g id="Group_16-2" data-name="Group 16" transform="translate(4.684 2.342)">
        <g id="Group_15-2" data-name="Group 15">
          <rect id="Rectangle_6-2" data-name="Rectangle 6" class="cls-3" width="0.937" height="3.747"/>
        </g>
      </g>
      <g id="Group_18-2" data-name="Group 18" transform="translate(2.342 15.457)">
        <g id="Group_17-2" data-name="Group 17">
          <path id="Path_5-2" data-name="Path 5" class="cls-3" d="M122.746,281.6h-2.81a.468.468,0,0,0-.468.468v2.81a.468.468,0,0,0,.468.468h2.81a.468.468,0,0,0,.468-.468v-2.81A.468.468,0,0,0,122.746,281.6Zm-.468,2.81H120.4v-1.874h1.874Z" transform="translate(-119.467 -281.6)"/>
        </g>
      </g>
    </g>
    <g id="_002-card-3" data-name="002-card" class="cls-2" transform="translate(-10.932 851.651) rotate(-30)">
      <g id="Group_2-3" data-name="Group 2">
        <g id="Group_1-3" data-name="Group 1">
          <path id="Path_2-3" data-name="Path 2" class="cls-3" d="M86.987,0h-8.15A2.04,2.04,0,0,0,76.8,2.037v14.67a2.04,2.04,0,0,0,2.037,2.037h7.335V17.93H78.837a1.224,1.224,0,0,1-1.222-1.222V2.037A1.224,1.224,0,0,1,78.837.815h8.15A1.224,1.224,0,0,1,88.21,2.037V13.855h.815V2.037A2.04,2.04,0,0,0,86.987,0Z" transform="translate(-76.8)"/>
        </g>
      </g>
      <g id="Group_4-3" data-name="Group 4" transform="translate(5.705 5.858)">
        <g id="Group_3-3" data-name="Group 3">
          <path id="Path_3-3" data-name="Path 3" class="cls-3" d="M206.7,127.671l-4-5-.637.509,4,5a3.678,3.678,0,0,1,.8,2.292v9.979H200.9a3.823,3.823,0,0,1-3.818-3.818v-1.479h-.815v1.479a4.639,4.639,0,0,0,4.633,4.633h6.369a.407.407,0,0,0,.407-.407V130.472A4.5,4.5,0,0,0,206.7,127.671Z" transform="translate(-196.267 -122.675)"/>
        </g>
      </g>
      <g id="Group_6-3" data-name="Group 6" transform="translate(5.008 8.794)">
        <g id="Group_5-3" data-name="Group 5">
          <path id="Path_4-3" data-name="Path 4" class="cls-3" d="M183.591,184.976a1.064,1.064,0,0,1,.748.335l5.476,5.819.594-.559-5.477-5.819a1.874,1.874,0,0,0-1.318-.59,1.85,1.85,0,0,0-1.345.51l-.041.04a1.881,1.881,0,0,0-.108,2.552l3.51,4.144v1.261a5.452,5.452,0,0,0,3.524,5.084l.286-.763a4.634,4.634,0,0,1-3-4.321v-1.41a.409.409,0,0,0-.1-.264l-3.605-4.257a1.076,1.076,0,0,1,.081-1.469A1.091,1.091,0,0,1,183.591,184.976Z" transform="translate(-181.674 -184.16)"/>
        </g>
      </g>
      <g id="Group_8-3" data-name="Group 8" transform="translate(8.965 0.815)">
        <g id="Group_7-3" data-name="Group 7">
          <rect id="Rectangle_2-3" data-name="Rectangle 2" class="cls-3" width="0.815" height="10.187"/>
        </g>
      </g>
      <g id="Group_10-3" data-name="Group 10" transform="translate(6.927 13.447)">
        <g id="Group_9-3" data-name="Group 9">
          <rect id="Rectangle_3-3" data-name="Rectangle 3" class="cls-3" width="0.815" height="4.89"/>
        </g>
      </g>
      <g id="Group_12-3" data-name="Group 12" transform="translate(6.927 0.407)">
        <g id="Group_11-3" data-name="Group 11">
          <rect id="Rectangle_4-3" data-name="Rectangle 4" class="cls-3" width="0.815" height="8.965"/>
        </g>
      </g>
      <g id="Group_14-3" data-name="Group 14" transform="translate(2.037 2.037)">
        <g id="Group_13-3" data-name="Group 13">
          <rect id="Rectangle_5-3" data-name="Rectangle 5" class="cls-3" width="0.815" height="5.297"/>
        </g>
      </g>
      <g id="Group_16-3" data-name="Group 16" transform="translate(4.075 2.037)">
        <g id="Group_15-3" data-name="Group 15">
          <rect id="Rectangle_6-3" data-name="Rectangle 6" class="cls-3" width="0.815" height="3.26"/>
        </g>
      </g>
      <g id="Group_18-3" data-name="Group 18" transform="translate(2.037 13.447)">
        <g id="Group_17-3" data-name="Group 17">
          <path id="Path_5-3" data-name="Path 5" class="cls-3" d="M122.319,281.6h-2.445a.407.407,0,0,0-.407.407v2.445a.407.407,0,0,0,.407.407h2.445a.407.407,0,0,0,.407-.407v-2.445A.407.407,0,0,0,122.319,281.6Zm-.407,2.445h-1.63v-1.63h1.63Z" transform="translate(-119.467 -281.6)"/>
        </g>
      </g>
    </g>
    <g id="_002-card-4" data-name="002-card" class="cls-2" transform="translate(214.068 951.651) rotate(-30)">
      <g id="Group_2-4" data-name="Group 2">
        <g id="Group_1-4" data-name="Group 1">
          <path id="Path_2-4" data-name="Path 2" class="cls-3" d="M88.51,0H79.142A2.345,2.345,0,0,0,76.8,2.342V19.2a2.345,2.345,0,0,0,2.342,2.342h8.431V20.61H79.142A1.407,1.407,0,0,1,77.737,19.2V2.342A1.407,1.407,0,0,1,79.142.937H88.51a1.407,1.407,0,0,1,1.405,1.405V15.926h.937V2.342A2.345,2.345,0,0,0,88.51,0Z" transform="translate(-76.8)"/>
        </g>
      </g>
      <g id="Group_4-4" data-name="Group 4" transform="translate(6.558 6.734)">
        <g id="Group_3-4" data-name="Group 3">
          <path id="Path_3-4" data-name="Path 3" class="cls-3" d="M208.254,128.418l-4.6-5.743-.732.586,4.6,5.742a4.228,4.228,0,0,1,.924,2.635v11.471h-6.853a4.394,4.394,0,0,1-4.389-4.389v-1.7h-.937v1.7a5.332,5.332,0,0,0,5.326,5.326h7.321a.468.468,0,0,0,.468-.468V131.638A5.172,5.172,0,0,0,208.254,128.418Z" transform="translate(-196.267 -122.675)"/>
        </g>
      </g>
      <g id="Group_6-4" data-name="Group 6" transform="translate(5.757 10.109)">
        <g id="Group_5-4" data-name="Group 5">
          <path id="Path_4-4" data-name="Path 4" class="cls-3" d="M183.878,185.1a1.223,1.223,0,0,1,.86.385l6.295,6.689.682-.642-6.3-6.689a2.154,2.154,0,0,0-1.515-.679,2.127,2.127,0,0,0-1.546.586l-.047.046a2.162,2.162,0,0,0-.124,2.933l4.034,4.764v1.449a6.267,6.267,0,0,0,4.051,5.844l.329-.877a5.327,5.327,0,0,1-3.443-4.967v-1.621a.47.47,0,0,0-.111-.3l-4.144-4.893a1.237,1.237,0,0,1,.094-1.689A1.254,1.254,0,0,1,183.878,185.1Z" transform="translate(-181.674 -184.16)"/>
        </g>
      </g>
      <g id="Group_8-4" data-name="Group 8" transform="translate(10.305 0.937)">
        <g id="Group_7-4" data-name="Group 7">
          <rect id="Rectangle_2-4" data-name="Rectangle 2" class="cls-3" width="0.937" height="11.71"/>
        </g>
      </g>
      <g id="Group_10-4" data-name="Group 10" transform="translate(7.963 15.457)">
        <g id="Group_9-4" data-name="Group 9">
          <rect id="Rectangle_3-4" data-name="Rectangle 3" class="cls-3" width="0.937" height="5.621"/>
        </g>
      </g>
      <g id="Group_12-4" data-name="Group 12" transform="translate(7.963 0.468)">
        <g id="Group_11-4" data-name="Group 11">
          <rect id="Rectangle_4-4" data-name="Rectangle 4" class="cls-3" width="0.937" height="10.305"/>
        </g>
      </g>
      <g id="Group_14-4" data-name="Group 14" transform="translate(2.342 2.342)">
        <g id="Group_13-4" data-name="Group 13">
          <rect id="Rectangle_5-4" data-name="Rectangle 5" class="cls-3" width="0.937" height="6.089"/>
        </g>
      </g>
      <g id="Group_16-4" data-name="Group 16" transform="translate(4.684 2.342)">
        <g id="Group_15-4" data-name="Group 15">
          <rect id="Rectangle_6-4" data-name="Rectangle 6" class="cls-3" width="0.937" height="3.747"/>
        </g>
      </g>
      <g id="Group_18-4" data-name="Group 18" transform="translate(2.342 15.457)">
        <g id="Group_17-4" data-name="Group 17">
          <path id="Path_5-4" data-name="Path 5" class="cls-3" d="M122.746,281.6h-2.81a.468.468,0,0,0-.468.468v2.81a.468.468,0,0,0,.468.468h2.81a.468.468,0,0,0,.468-.468v-2.81A.468.468,0,0,0,122.746,281.6Zm-.468,2.81H120.4v-1.874h1.874Z" transform="translate(-119.467 -281.6)"/>
        </g>
      </g>
    </g>
    <g id="_002-card-5" data-name="002-card" class="cls-2" transform="translate(375.068 959.651) rotate(-30)">
      <g id="Group_2-5" data-name="Group 2">
        <g id="Group_1-5" data-name="Group 1">
          <path id="Path_2-5" data-name="Path 2" class="cls-3" d="M88.51,0H79.142A2.345,2.345,0,0,0,76.8,2.342V19.2a2.345,2.345,0,0,0,2.342,2.342h8.431V20.61H79.142A1.407,1.407,0,0,1,77.737,19.2V2.342A1.407,1.407,0,0,1,79.142.937H88.51a1.407,1.407,0,0,1,1.405,1.405V15.926h.937V2.342A2.345,2.345,0,0,0,88.51,0Z" transform="translate(-76.8)"/>
        </g>
      </g>
      <g id="Group_4-5" data-name="Group 4" transform="translate(6.558 6.734)">
        <g id="Group_3-5" data-name="Group 3">
          <path id="Path_3-5" data-name="Path 3" class="cls-3" d="M208.254,128.418l-4.6-5.743-.732.586,4.6,5.742a4.228,4.228,0,0,1,.924,2.635v11.471h-6.853a4.394,4.394,0,0,1-4.389-4.389v-1.7h-.937v1.7a5.332,5.332,0,0,0,5.326,5.326h7.321a.468.468,0,0,0,.468-.468V131.638A5.172,5.172,0,0,0,208.254,128.418Z" transform="translate(-196.267 -122.675)"/>
        </g>
      </g>
      <g id="Group_6-5" data-name="Group 6" transform="translate(5.757 10.109)">
        <g id="Group_5-5" data-name="Group 5">
          <path id="Path_4-5" data-name="Path 4" class="cls-3" d="M183.878,185.1a1.223,1.223,0,0,1,.86.385l6.295,6.689.682-.642-6.3-6.689a2.154,2.154,0,0,0-1.515-.679,2.127,2.127,0,0,0-1.546.586l-.047.046a2.162,2.162,0,0,0-.124,2.933l4.034,4.764v1.449a6.267,6.267,0,0,0,4.051,5.844l.329-.877a5.327,5.327,0,0,1-3.443-4.967v-1.621a.47.47,0,0,0-.111-.3l-4.144-4.893a1.237,1.237,0,0,1,.094-1.689A1.254,1.254,0,0,1,183.878,185.1Z" transform="translate(-181.674 -184.16)"/>
        </g>
      </g>
      <g id="Group_8-5" data-name="Group 8" transform="translate(10.305 0.937)">
        <g id="Group_7-5" data-name="Group 7">
          <rect id="Rectangle_2-5" data-name="Rectangle 2" class="cls-3" width="0.937" height="11.71"/>
        </g>
      </g>
      <g id="Group_10-5" data-name="Group 10" transform="translate(7.963 15.457)">
        <g id="Group_9-5" data-name="Group 9">
          <rect id="Rectangle_3-5" data-name="Rectangle 3" class="cls-3" width="0.937" height="5.621"/>
        </g>
      </g>
      <g id="Group_12-5" data-name="Group 12" transform="translate(7.963 0.468)">
        <g id="Group_11-5" data-name="Group 11">
          <rect id="Rectangle_4-5" data-name="Rectangle 4" class="cls-3" width="0.937" height="10.305"/>
        </g>
      </g>
      <g id="Group_14-5" data-name="Group 14" transform="translate(2.342 2.342)">
        <g id="Group_13-5" data-name="Group 13">
          <rect id="Rectangle_5-5" data-name="Rectangle 5" class="cls-3" width="0.937" height="6.089"/>
        </g>
      </g>
      <g id="Group_16-5" data-name="Group 16" transform="translate(4.684 2.342)">
        <g id="Group_15-5" data-name="Group 15">
          <rect id="Rectangle_6-5" data-name="Rectangle 6" class="cls-3" width="0.937" height="3.747"/>
        </g>
      </g>
      <g id="Group_18-5" data-name="Group 18" transform="translate(2.342 15.457)">
        <g id="Group_17-5" data-name="Group 17">
          <path id="Path_5-5" data-name="Path 5" class="cls-3" d="M122.746,281.6h-2.81a.468.468,0,0,0-.468.468v2.81a.468.468,0,0,0,.468.468h2.81a.468.468,0,0,0,.468-.468v-2.81A.468.468,0,0,0,122.746,281.6Zm-.468,2.81H120.4v-1.874h1.874Z" transform="translate(-119.467 -281.6)"/>
        </g>
      </g>
    </g>
  </g>
</svg>
