<?xml version="1.0" encoding="iso-8859-1"?>
<!-- Generator: Adobe Illustrator 19.0.0, SVG Export Plug-In . SVG Version: 6.00 Build 0)  -->
<svg xmlns="http://www.w3.org/2000/svg" xmlns:xlink="http://www.w3.org/1999/xlink" version="1.1" id="Capa_1" x="0px" y="0px" viewBox="0 0 512.001 512.001" style="enable-background:new 0 0 512.001 512.001;" xml:space="preserve" width="512px" height="512px">
<g>
	<g>
		<path d="M207.8,0.001H15c-8.284,0-15,6.716-15,15v192.801c0,8.284,6.716,15,15,15h192.8c8.284,0,15-6.716,15-15V15    C222.8,6.716,216.084,0.001,207.8,0.001z M192.8,192.801H30V30h162.8V192.801z" fill="#0d3373"/>
	</g>
</g>
<g>
	<g>
		<path d="M207.8,289.201H15c-8.284,0-15,6.716-15,15V497c0,8.284,6.716,15,15,15h192.8c8.284,0,15-6.716,15-15V304.2    C222.8,295.917,216.084,289.201,207.8,289.201z M192.8,482H30V319.2h162.8V482z" fill="#0d3373"/>
	</g>
</g>
<g>
	<g>
		<path d="M497.001,0.001H304.2c-8.284,0-15,6.716-15,15v192.801c0,8.284,6.716,15,15,15h192.801c8.284,0,15-6.716,15-15V15    C512.001,6.716,505.285,0.001,497.001,0.001z M482.001,192.801H319.2V30h162.801V192.801z" fill="#0d3373"/>
	</g>
</g>
<g>
	<g>
		<path d="M497.001,385.602c-8.284,0-15,6.716-15,15V482h-49.268c-8.284,0-15,6.716-15,15s6.716,15,15,15h64.268    c8.284,0,15-6.716,15-15v-96.398C512.001,392.318,505.285,385.602,497.001,385.602z" fill="#0d3373"/>
	</g>
</g>
<g>
	<g>
		<path d="M368.468,289.201H304.2c-8.284,0-15,6.716-15,15v96.401c0,8.284,6.716,15,15,15s15-6.716,15-15v-81.401h49.268    c8.284,0,15-6.716,15-15S376.752,289.201,368.468,289.201z" fill="#0d3373"/>
	</g>
</g>
<g>
	<g>
		<path d="M122.01,100.79c-2.8-2.79-6.66-4.39-10.61-4.39s-7.81,1.6-10.61,4.39c-2.79,2.8-4.39,6.66-4.39,10.61    c0,3.95,1.6,7.82,4.39,10.61c2.79,2.79,6.66,4.39,10.61,4.39c3.95,0,7.81-1.6,10.61-4.39c2.79-2.8,4.39-6.66,4.39-10.61    C126.4,107.45,124.8,103.59,122.01,100.79z" fill="#0d3373"/>
	</g>
</g>
<g>
	<g>
		<path d="M122.01,390.001c-2.79-2.8-6.66-4.4-10.61-4.4s-7.82,1.6-10.61,4.4c-2.79,2.79-4.39,6.65-4.39,10.6s1.6,7.82,4.39,10.61    c2.79,2.789,6.66,4.39,10.61,4.39c3.95,0,7.82-1.6,10.61-4.39c2.79-2.8,4.39-6.66,4.39-10.61    C126.4,396.651,124.8,392.791,122.01,390.001z" fill="#0d3373"/>
	</g>
</g>
<g>
	<g>
		<path d="M411.21,100.79c-2.79-2.79-6.66-4.39-10.61-4.39c-3.95,0-7.819,1.6-10.609,4.39c-2.79,2.8-4.391,6.66-4.391,10.61    c0,3.95,1.601,7.81,4.391,10.61c2.799,2.79,6.658,4.39,10.609,4.39c3.95,0,7.811-1.6,10.61-4.39c2.79-2.8,4.39-6.66,4.39-10.61    C415.6,107.45,414,103.59,411.21,100.79z" fill="#0d3373"/>
	</g>
</g>
<g>
	<g>
		<path d="M411.21,390.001c-2.79-2.801-6.66-4.4-10.61-4.4c-3.95,0-7.819,1.6-10.609,4.4c-2.79,2.79-4.391,6.65-4.391,10.6    s1.601,7.82,4.391,10.61c2.8,2.79,6.659,4.39,10.609,4.39s7.811-1.6,10.61-4.39c2.79-2.8,4.39-6.66,4.39-10.61    C415.6,396.651,414,392.791,411.21,390.001z" fill="#0d3373"/>
	</g>
</g>
<g>
	<g>
		<path d="M497.001,289.201h-32.134c-8.284,0-15,6.716-15,15s6.716,15,15,15h32.134c8.284,0,15-6.716,15-15    S505.285,289.201,497.001,289.201z" fill="#0d3373"/>
	</g>
</g>
<g>
	<g>
		<path d="M336.333,482H304.2c-8.284,0-15,6.716-15,15s6.716,15,15,15h32.133c8.284,0,15-6.716,15-15S344.617,482,336.333,482z" fill="#0d3373"/>
	</g>
</g>
<g>
</g>
<g>
</g>
<g>
</g>
<g>
</g>
<g>
</g>
<g>
</g>
<g>
</g>
<g>
</g>
<g>
</g>
<g>
</g>
<g>
</g>
<g>
</g>
<g>
</g>
<g>
</g>
<g>
</g>
</svg>
