<?xml version="1.0" encoding="iso-8859-1"?>
<!-- Generator: Adobe Illustrator 19.0.0, SVG Export Plug-In . SVG Version: 6.00 Build 0)  -->
<svg xmlns="http://www.w3.org/2000/svg" xmlns:xlink="http://www.w3.org/1999/xlink" version="1.1" id="Capa_1" x="0px" y="0px" viewBox="0 0 512 512" style="enable-background:new 0 0 512 512;" xml:space="preserve" width="512px" height="512px">
<g>
	<g>
		<g>
			<path d="M384,0H128c-14.138,0-25.6,11.461-25.6,25.6v460.8c0,14.138,11.461,25.6,25.6,25.6h256c14.138,0,25.6-11.461,25.6-25.6     V25.6C409.6,11.461,398.138,0,384,0z M392.533,486.4c0,4.713-3.82,8.533-8.533,8.533H128c-4.713,0-8.533-3.82-8.533-8.533v-51.2     h273.067V486.4z M392.533,418.133H119.467v-332.8h273.067V418.133z M392.533,68.267H119.467V25.6c0-4.713,3.82-8.533,8.533-8.533     h256c4.713,0,8.533,3.82,8.533,8.533V68.267z" fill="#0d3373"/>
			<path d="M247.467,477.867h17.067c4.713,0,8.533-3.82,8.533-8.533s-3.82-8.533-8.533-8.533h-17.067     c-4.713,0-8.533,3.82-8.533,8.533S242.754,477.867,247.467,477.867z" fill="#0d3373"/>
			<path d="M145.067,119.467h8.533c4.713,0,8.533-3.82,8.533-8.533s-3.82-8.533-8.533-8.533h-8.533c-4.713,0-8.533,3.82-8.533,8.533     S140.354,119.467,145.067,119.467z" fill="#0d3373"/>
			<path d="M187.733,119.467h85.333c4.713,0,8.533-3.82,8.533-8.533s-3.82-8.533-8.533-8.533h-85.333     c-4.713,0-8.533,3.82-8.533,8.533S183.021,119.467,187.733,119.467z" fill="#0d3373"/>
			<path d="M162.133,268.8c0,4.713,3.821,8.533,8.533,8.533s8.533-3.821,8.533-8.533v-38.4c0.002-5.202,0.525-10.391,1.562-15.488     c6.189-30.057,29.676-53.544,59.733-59.733c10.221-2.074,20.755-2.074,30.976,0c9.814,2.009,19.137,5.933,27.435,11.546     c2.524,1.768,5.804,2.038,8.583,0.707s4.624-4.057,4.828-7.132s-1.266-6.02-3.845-7.706     c-10.155-6.873-21.565-11.675-33.579-14.131c-12.479-2.534-25.341-2.534-37.82,0c-12.009,2.456-23.417,7.255-33.57,14.123     c-9.992,6.749-18.595,15.352-25.344,25.344c-6.873,10.155-11.675,21.565-14.131,33.579c-1.265,6.218-1.899,12.548-1.894,18.893     V268.8z" fill="#0d3373"/>
			<path d="M341.333,298.667c-4.713,0-8.533,3.82-8.533,8.533c-0.002,5.202-0.525,10.39-1.562,15.488     c-6.189,30.057-29.676,53.544-59.733,59.733c-10.221,2.074-20.755,2.074-30.976,0c-30.057-6.189-53.544-29.676-59.733-59.733     c-1.048-5.096-1.583-10.285-1.596-15.488c0-4.713-3.82-8.533-8.533-8.533s-8.533,3.82-8.533,8.533     c-0.001,6.352,0.64,12.687,1.911,18.91c2.456,12.009,7.255,23.417,14.123,33.57c6.749,9.992,15.352,18.595,25.344,25.344     c10.155,6.873,21.565,11.675,33.579,14.131c12.478,2.549,25.342,2.549,37.82,0c12.009-2.456,23.417-7.255,33.57-14.123     c9.992-6.749,18.595-15.352,25.344-25.344c6.873-10.155,11.675-21.565,14.131-33.579c1.272-6.223,1.912-12.558,1.911-18.91     C349.867,302.487,346.046,298.667,341.333,298.667z" fill="#0d3373"/>
			<path d="M326.767,200.533c1.962,4.642,3.459,9.467,4.471,14.404c1.035,5.089,1.558,10.269,1.562,15.462v38.4     c0,4.713,3.821,8.533,8.533,8.533c4.713,0,8.533-3.821,8.533-8.533v-38.4c0.001-6.352-0.64-12.687-1.911-18.91     c-2.456-12.013-7.258-23.424-14.131-33.579c-1.686-2.579-4.632-4.048-7.706-3.845s-5.8,2.049-7.132,4.828     c-1.331,2.779-1.061,6.059,0.707,8.583C322.465,191.592,324.834,195.964,326.767,200.533z" fill="#0d3373"/>
			<path d="M204.8,260.267c-4.713,0-8.533,3.82-8.533,8.533v38.4c0.001,20.024,10.034,38.715,26.722,49.781     c16.688,11.066,37.811,13.034,56.256,5.242c2.808-1.192,4.766-3.791,5.138-6.819c0.372-3.028-0.9-6.024-3.337-7.859     s-5.667-2.232-8.475-1.04c-21.708,9.115-46.698-1.052-55.876-22.733c-2.233-5.239-3.377-10.877-3.362-16.572v-38.4     C213.333,264.087,209.513,260.267,204.8,260.267z" fill="#0d3373"/>
			<path d="M233.153,175.256c-22.311,9.236-36.867,30.997-36.886,55.144c0,4.713,3.82,8.533,8.533,8.533s8.533-3.82,8.533-8.533     c-0.014-5.697,1.13-11.338,3.362-16.58c6.673-15.798,22.155-26.066,39.304-26.066s32.632,10.268,39.305,26.066     c2.234,5.241,3.378,10.883,3.362,16.58v76.8c0.015,5.695-1.129,11.333-3.362,16.572c-1.843,4.34,0.182,9.353,4.523,11.196     s9.353-0.182,11.196-4.523c3.121-7.352,4.723-15.258,4.71-23.245v-76.8c0.004-15.837-6.296-31.024-17.51-42.206     C281.142,171.125,255.464,166.02,233.153,175.256z" fill="#0d3373"/>
			<path d="M230.921,312.32c0.668,3.29,1.985,6.415,3.874,9.19c0.902,1.341,1.934,2.59,3.081,3.729     c1.172,1.185,2.459,2.251,3.84,3.183c2.752,1.861,5.842,3.163,9.096,3.831c1.706,0.359,3.445,0.542,5.188,0.546     c1.72,0.002,3.436-0.173,5.12-0.521c3.29-0.668,6.415-1.985,9.19-3.874c1.341-0.902,2.59-1.934,3.729-3.081     c1.185-1.172,2.251-2.459,3.183-3.84c1.861-2.752,3.163-5.842,3.831-9.096c0.359-1.706,0.542-3.445,0.546-5.188v-38.4     c0-4.713-3.82-8.533-8.533-8.533s-8.533,3.82-8.533,8.533v38.4c-0.003,1.137-0.229,2.262-0.666,3.311     c-0.217,0.499-0.477,0.979-0.777,1.434c-0.326,0.471-0.694,0.911-1.101,1.314c-0.369,0.369-0.772,0.703-1.203,0.998     c-0.472,0.332-0.975,0.618-1.502,0.853c-0.519,0.217-1.06,0.38-1.613,0.486c-1.126,0.236-2.288,0.236-3.413,0     c-0.541-0.11-1.07-0.273-1.579-0.486c-0.499-0.217-0.979-0.477-1.434-0.777c-0.471-0.326-0.911-0.694-1.314-1.101     c-0.369-0.369-0.703-0.772-0.998-1.203c-0.332-0.472-0.618-0.975-0.853-1.502c-0.418-1.059-0.626-2.189-0.614-3.328     c0-4.713-3.82-8.533-8.533-8.533s-8.533,3.82-8.533,8.533C230.398,308.92,230.573,310.636,230.921,312.32z" fill="#0d3373"/>
			<path d="M238.933,277.333c4.713,0,8.533-3.821,8.533-8.533v-38.4c0.003-1.137,0.229-2.262,0.666-3.311     c0.217-0.499,0.477-0.979,0.777-1.434c0.326-0.471,0.694-0.911,1.101-1.314c0.369-0.369,0.772-0.703,1.203-0.998     c0.472-0.332,0.975-0.618,1.502-0.853c0.519-0.217,1.06-0.38,1.613-0.486c1.126-0.236,2.288-0.236,3.413,0     c0.541,0.11,1.07,0.273,1.579,0.486c0.499,0.217,0.979,0.477,1.434,0.776c0.471,0.326,0.911,0.694,1.314,1.101     c0.369,0.369,0.703,0.772,0.998,1.203c0.332,0.472,0.618,0.975,0.853,1.502c0.418,1.059,0.626,2.189,0.614,3.328     c0,4.713,3.82,8.533,8.533,8.533s8.533-3.82,8.533-8.533c0.002-1.72-0.173-3.436-0.521-5.12c-0.668-3.29-1.985-6.415-3.874-9.19     c-0.902-1.341-1.934-2.59-3.081-3.729c-1.172-1.185-2.459-2.251-3.84-3.183c-1.346-0.912-2.774-1.694-4.267-2.338     c-1.545-0.654-3.152-1.151-4.796-1.485c-3.407-0.691-6.918-0.691-10.325,0c-3.29,0.668-6.415,1.985-9.19,3.874     c-1.341,0.902-2.59,1.934-3.729,3.081c-1.185,1.172-2.251,2.459-3.183,3.84c-0.912,1.346-1.694,2.774-2.338,4.267     c-1.337,3.16-2.036,6.553-2.057,9.984v38.4C230.4,273.513,234.221,277.333,238.933,277.333z" fill="#0d3373"/>
		</g>
	</g>
</g>
<g>
</g>
<g>
</g>
<g>
</g>
<g>
</g>
<g>
</g>
<g>
</g>
<g>
</g>
<g>
</g>
<g>
</g>
<g>
</g>
<g>
</g>
<g>
</g>
<g>
</g>
<g>
</g>
<g>
</g>
</svg>
